<svg width="110" height="41" viewBox="0 0 110 41" fill="none" xmlns="http://www.w3.org/2000/svg">
<circle cx="26.5" cy="5.5" r="1.5" fill="#8C00FF"/>
<circle cx="35.5" cy="5.5" r="1.5" fill="#FF0004"/>
<circle cx="44.5" cy="5.5" r="1.5" fill="#FF8800"/>
<circle cx="53.5" cy="5.5" r="1.5" fill="#FFE600"/>
<circle cx="62.5" cy="5.5" r="1.5" fill="#73FF00"/>
<circle cx="71.5" cy="5.5" r="1.5" fill="#FB00FF"/>
<circle cx="80.5" cy="5.5" r="1.5" fill="#0071FF"/>
<circle cx="89.5" cy="5.5" r="1.5" fill="#0071FF"/>
<mask id="path-9-outside-1_2_238" maskUnits="userSpaceOnUse" x="1.45819" y="11" width="108" height="30" fill="black">
<rect fill="white" x="1.45819" y="11" width="108" height="30"/>
<path d="M3.00619 33V12.252H7.15019V20.428H14.9902V12.252H19.1062V33H14.9902V24.04H7.15019V33H3.00619ZM28.5376 33.392C25.1496 33.392 23.6936 31.04 23.6936 27.12V17.32H27.8096V26.588C27.8096 28.996 28.4816 29.864 29.9936 29.864C31.2816 29.864 32.1216 29.304 33.1856 27.904V17.32H37.3016V33H33.9416L33.6336 30.76H33.5216C32.1776 32.356 30.6656 33.392 28.5376 33.392ZM48.5217 33.392C44.1257 33.392 40.7097 30.34 40.7097 25.16C40.7097 20.092 44.2937 16.928 48.0177 16.928C52.3297 16.928 54.5697 20.092 54.5697 24.404C54.5697 25.188 54.4857 25.944 54.3737 26.308H44.7137C45.0497 28.884 46.7297 30.228 49.0537 30.228C50.3417 30.228 51.4617 29.836 52.5817 29.136L53.9817 31.656C52.4417 32.72 50.4537 33.392 48.5217 33.392ZM44.6577 23.564H51.0417C51.0417 21.464 50.0897 20.12 48.0737 20.12C46.4217 20.12 44.9657 21.296 44.6577 23.564ZM58.2953 33V12.252H63.9793C70.3073 12.252 74.2273 15.556 74.2273 22.556C74.2273 29.528 70.3073 33 64.2033 33H58.2953ZM62.4393 29.668H63.7273C67.5913 29.668 69.9993 27.596 69.9993 22.556C69.9993 17.488 67.5913 15.584 63.7273 15.584H62.4393V29.668ZM81.8115 33.392C79.0115 33.392 77.1635 31.404 77.1635 28.744C77.1635 25.384 79.8795 23.62 86.2075 22.948C86.1235 21.408 85.4515 20.232 83.5195 20.232C82.0635 20.232 80.6635 20.876 79.2075 21.716L77.7235 19C79.5715 17.852 81.8115 16.928 84.2755 16.928C88.2515 16.928 90.2955 19.308 90.2955 23.844V33H86.9355L86.6555 31.32H86.5435C85.1715 32.496 83.6035 33.392 81.8115 33.392ZM83.1555 30.172C84.3315 30.172 85.1995 29.612 86.2075 28.632V25.468C82.3715 25.944 81.0835 27.008 81.0835 28.408C81.0835 29.64 81.9515 30.172 83.1555 30.172ZM95.8625 39.3C94.9385 39.3 94.3225 39.188 93.7065 38.992L94.4625 35.828C94.7425 35.912 95.1905 36.024 95.5545 36.024C97.1505 36.024 98.0465 35.016 98.4945 33.644L98.7745 32.72L92.6705 17.32H96.8145L99.3065 24.6C99.7825 26 100.175 27.512 100.623 29.024H100.763C101.127 27.568 101.519 26.056 101.883 24.6L104.039 17.32H107.987L102.415 33.476C101.043 37.172 99.3625 39.3 95.8625 39.3Z"/>
</mask>
<path d="M3.00619 33V12.252H7.15019V20.428H14.9902V12.252H19.1062V33H14.9902V24.04H7.15019V33H3.00619ZM28.5376 33.392C25.1496 33.392 23.6936 31.04 23.6936 27.12V17.32H27.8096V26.588C27.8096 28.996 28.4816 29.864 29.9936 29.864C31.2816 29.864 32.1216 29.304 33.1856 27.904V17.32H37.3016V33H33.9416L33.6336 30.76H33.5216C32.1776 32.356 30.6656 33.392 28.5376 33.392ZM48.5217 33.392C44.1257 33.392 40.7097 30.34 40.7097 25.16C40.7097 20.092 44.2937 16.928 48.0177 16.928C52.3297 16.928 54.5697 20.092 54.5697 24.404C54.5697 25.188 54.4857 25.944 54.3737 26.308H44.7137C45.0497 28.884 46.7297 30.228 49.0537 30.228C50.3417 30.228 51.4617 29.836 52.5817 29.136L53.9817 31.656C52.4417 32.72 50.4537 33.392 48.5217 33.392ZM44.6577 23.564H51.0417C51.0417 21.464 50.0897 20.12 48.0737 20.12C46.4217 20.12 44.9657 21.296 44.6577 23.564ZM58.2953 33V12.252H63.9793C70.3073 12.252 74.2273 15.556 74.2273 22.556C74.2273 29.528 70.3073 33 64.2033 33H58.2953ZM62.4393 29.668H63.7273C67.5913 29.668 69.9993 27.596 69.9993 22.556C69.9993 17.488 67.5913 15.584 63.7273 15.584H62.4393V29.668ZM81.8115 33.392C79.0115 33.392 77.1635 31.404 77.1635 28.744C77.1635 25.384 79.8795 23.62 86.2075 22.948C86.1235 21.408 85.4515 20.232 83.5195 20.232C82.0635 20.232 80.6635 20.876 79.2075 21.716L77.7235 19C79.5715 17.852 81.8115 16.928 84.2755 16.928C88.2515 16.928 90.2955 19.308 90.2955 23.844V33H86.9355L86.6555 31.32H86.5435C85.1715 32.496 83.6035 33.392 81.8115 33.392ZM83.1555 30.172C84.3315 30.172 85.1995 29.612 86.2075 28.632V25.468C82.3715 25.944 81.0835 27.008 81.0835 28.408C81.0835 29.64 81.9515 30.172 83.1555 30.172ZM95.8625 39.3C94.9385 39.3 94.3225 39.188 93.7065 38.992L94.4625 35.828C94.7425 35.912 95.1905 36.024 95.5545 36.024C97.1505 36.024 98.0465 35.016 98.4945 33.644L98.7745 32.72L92.6705 17.32H96.8145L99.3065 24.6C99.7825 26 100.175 27.512 100.623 29.024H100.763C101.127 27.568 101.519 26.056 101.883 24.6L104.039 17.32H107.987L102.415 33.476C101.043 37.172 99.3625 39.3 95.8625 39.3Z" fill="#4C4C4C"/>
<path d="M3.00619 33H2.00619V34H3.00619V33ZM3.00619 12.252V11.252H2.00619V12.252H3.00619ZM7.15019 12.252H8.15019V11.252H7.15019V12.252ZM7.15019 20.428H6.15019V21.428H7.15019V20.428ZM14.9902 20.428V21.428H15.9902V20.428H14.9902ZM14.9902 12.252V11.252H13.9902V12.252H14.9902ZM19.1062 12.252H20.1062V11.252H19.1062V12.252ZM19.1062 33V34H20.1062V33H19.1062ZM14.9902 33H13.9902V34H14.9902V33ZM14.9902 24.04H15.9902V23.04H14.9902V24.04ZM7.15019 24.04V23.04H6.15019V24.04H7.15019ZM7.15019 33V34H8.15019V33H7.15019ZM4.00619 33V12.252H2.00619V33H4.00619ZM3.00619 13.252H7.15019V11.252H3.00619V13.252ZM6.15019 12.252V20.428H8.15019V12.252H6.15019ZM7.15019 21.428H14.9902V19.428H7.15019V21.428ZM15.9902 20.428V12.252H13.9902V20.428H15.9902ZM14.9902 13.252H19.1062V11.252H14.9902V13.252ZM18.1062 12.252V33H20.1062V12.252H18.1062ZM19.1062 32H14.9902V34H19.1062V32ZM15.9902 33V24.04H13.9902V33H15.9902ZM14.9902 23.04H7.15019V25.04H14.9902V23.04ZM6.15019 24.04V33H8.15019V24.04H6.15019ZM7.15019 32H3.00619V34H7.15019V32ZM23.6936 17.32V16.32H22.6936V17.32H23.6936ZM27.8096 17.32H28.8096V16.32H27.8096V17.32ZM33.1856 27.904L33.9818 28.5091L34.1856 28.2409V27.904H33.1856ZM33.1856 17.32V16.32H32.1856V17.32H33.1856ZM37.3016 17.32H38.3016V16.32H37.3016V17.32ZM37.3016 33V34H38.3016V33H37.3016ZM33.9416 33L32.9509 33.1362L33.0697 34H33.9416V33ZM33.6336 30.76L34.6243 30.6238L34.5055 29.76H33.6336V30.76ZM33.5216 30.76V29.76H33.0564L32.7567 30.1159L33.5216 30.76ZM28.5376 32.392C27.1021 32.392 26.2187 31.911 25.6526 31.1361C25.0449 30.3042 24.6936 28.9847 24.6936 27.12H22.6936C22.6936 29.1753 23.0703 30.9918 24.0376 32.3159C25.0465 33.697 26.5851 34.392 28.5376 34.392V32.392ZM24.6936 27.12V17.32H22.6936V27.12H24.6936ZM23.6936 18.32H27.8096V16.32H23.6936V18.32ZM26.8096 17.32V26.588H28.8096V17.32H26.8096ZM26.8096 26.588C26.8096 27.8359 26.9737 28.9166 27.5112 29.6965C28.1151 30.5727 29.0315 30.864 29.9936 30.864V28.864C29.4437 28.864 29.2681 28.7213 29.158 28.5615C28.9815 28.3054 28.8096 27.7481 28.8096 26.588H26.8096ZM29.9936 30.864C30.8014 30.864 31.5218 30.6831 32.2036 30.257C32.8577 29.8482 33.4204 29.2478 33.9818 28.5091L32.3894 27.2989C31.8868 27.9602 31.4975 28.3398 31.1436 28.561C30.8174 28.7649 30.4738 28.864 29.9936 28.864V30.864ZM34.1856 27.904V17.32H32.1856V27.904H34.1856ZM33.1856 18.32H37.3016V16.32H33.1856V18.32ZM36.3016 17.32V33H38.3016V17.32H36.3016ZM37.3016 32H33.9416V34H37.3016V32ZM34.9323 32.8638L34.6243 30.6238L32.6429 30.8962L32.9509 33.1362L34.9323 32.8638ZM33.6336 29.76H33.5216V31.76H33.6336V29.76ZM32.7567 30.1159C31.5221 31.582 30.2649 32.392 28.5376 32.392V34.392C31.0663 34.392 32.8331 33.13 34.2865 31.4041L32.7567 30.1159ZM54.3737 26.308V27.308H55.1123L55.3295 26.6021L54.3737 26.308ZM44.7137 26.308V25.308H43.5748L43.7221 26.4373L44.7137 26.308ZM52.5817 29.136L53.4559 28.6504L52.9446 27.73L52.0517 28.288L52.5817 29.136ZM53.9817 31.656L54.5502 32.4787L55.2963 31.9632L54.8559 31.1704L53.9817 31.656ZM44.6577 23.564L43.6668 23.4294L43.5127 24.564H44.6577V23.564ZM51.0417 23.564V24.564H52.0417V23.564H51.0417ZM48.5217 32.392C46.5586 32.392 44.871 31.714 43.6761 30.5132C42.4841 29.3152 41.7097 27.5234 41.7097 25.16H39.7097C39.7097 27.9766 40.6434 30.3008 42.2584 31.9238C43.8705 33.544 46.0889 34.392 48.5217 34.392V32.392ZM41.7097 25.16C41.7097 20.6012 44.8882 17.928 48.0177 17.928V15.928C43.6993 15.928 39.7097 19.5828 39.7097 25.16H41.7097ZM48.0177 17.928C49.9066 17.928 51.2498 18.6089 52.1398 19.686C53.0509 20.7885 53.5697 22.4092 53.5697 24.404H55.5697C55.5697 22.0868 54.9685 19.9695 53.6816 18.412C52.3736 16.8291 50.4408 15.928 48.0177 15.928V17.928ZM53.5697 24.404C53.5697 25.1569 53.4856 25.7939 53.4179 26.0139L55.3295 26.6021C55.4858 26.0941 55.5697 25.2191 55.5697 24.404H53.5697ZM54.3737 25.308H44.7137V27.308H54.3737V25.308ZM43.7221 26.4373C43.9154 27.9191 44.5109 29.1394 45.48 29.9868C46.4474 30.8328 47.6969 31.228 49.0537 31.228V29.228C48.0865 29.228 47.334 28.9512 46.7965 28.4812C46.2605 28.0126 45.8481 27.2729 45.7053 26.1787L43.7221 26.4373ZM49.0537 31.228C50.5683 31.228 51.8696 30.7603 53.1117 29.984L52.0517 28.288C51.0539 28.9117 50.1152 29.228 49.0537 29.228V31.228ZM51.7076 29.6216L53.1076 32.1416L54.8559 31.1704L53.4559 28.6504L51.7076 29.6216ZM53.4133 30.8333C52.0282 31.7902 50.2364 32.392 48.5217 32.392V34.392C50.6711 34.392 52.8552 33.6498 54.5502 32.4787L53.4133 30.8333ZM44.6577 24.564H51.0417V22.564H44.6577V24.564ZM52.0417 23.564C52.0417 22.3816 51.7759 21.2619 51.0875 20.421C50.3721 19.5472 49.3207 19.12 48.0737 19.12V21.12C48.8428 21.12 49.2754 21.3648 49.54 21.688C49.8315 22.0441 50.0417 22.6464 50.0417 23.564H52.0417ZM48.0737 19.12C47.0028 19.12 45.9763 19.5047 45.1736 20.2659C44.373 21.0251 43.8462 22.1084 43.6668 23.4294L45.6486 23.6986C45.7772 22.7516 46.1324 22.1129 46.5498 21.7171C46.9652 21.3233 47.4927 21.12 48.0737 21.12V19.12ZM58.2953 33H57.2953V34H58.2953V33ZM58.2953 12.252V11.252H57.2953V12.252H58.2953ZM62.4393 29.668H61.4393V30.668H62.4393V29.668ZM62.4393 15.584V14.584H61.4393V15.584H62.4393ZM59.2953 33V12.252H57.2953V33H59.2953ZM58.2953 13.252H63.9793V11.252H58.2953V13.252ZM63.9793 13.252C66.9791 13.252 69.2571 14.0341 70.7835 15.5002C72.3028 16.9594 73.2273 19.2403 73.2273 22.556H75.2273C75.2273 18.8717 74.1917 16.0006 72.169 14.0578C70.1534 12.1219 67.3074 11.252 63.9793 11.252V13.252ZM73.2273 22.556C73.2273 25.8571 72.3026 28.183 70.7979 29.6847C69.2917 31.1878 67.0695 32 64.2033 32V34C67.441 34 70.2308 33.0762 72.2107 31.1003C74.1919 29.123 75.2273 26.2269 75.2273 22.556H73.2273ZM64.2033 32H58.2953V34H64.2033V32ZM62.4393 30.668H63.7273V28.668H62.4393V30.668ZM63.7273 30.668C65.8316 30.668 67.7046 30.1008 69.039 28.6889C70.3638 27.2872 70.9993 25.2193 70.9993 22.556H68.9993C68.9993 24.9327 68.4307 26.4208 67.5855 27.3151C66.7499 28.1992 65.4869 28.668 63.7273 28.668V30.668ZM70.9993 22.556C70.9993 19.8809 70.3646 17.8379 69.0272 16.4703C67.6851 15.0979 65.8103 14.584 63.7273 14.584V16.584C65.5082 16.584 66.7695 17.0221 67.5973 17.8687C68.4299 18.7201 68.9993 20.1631 68.9993 22.556H70.9993ZM63.7273 14.584H62.4393V16.584H63.7273V14.584ZM61.4393 15.584V29.668H63.4393V15.584H61.4393ZM86.2075 22.948L86.3131 23.9424L87.2578 23.8421L87.2061 22.8935L86.2075 22.948ZM79.2075 21.716L78.33 22.1955L78.8207 23.0936L79.7073 22.5822L79.2075 21.716ZM77.7235 19L77.1959 18.1506L76.3925 18.6496L76.846 19.4795L77.7235 19ZM90.2955 33V34H91.2955V33H90.2955ZM86.9355 33L85.9491 33.1644L86.0884 34H86.9355V33ZM86.6555 31.32L87.6419 31.1556L87.5027 30.32H86.6555V31.32ZM86.5435 31.32V30.32H86.1736L85.8927 30.5607L86.5435 31.32ZM86.2075 28.632L86.9046 29.349L87.2075 29.0545V28.632H86.2075ZM86.2075 25.468H87.2075V24.3362L86.0844 24.4756L86.2075 25.468ZM81.8115 32.392C80.6572 32.392 79.7603 31.9873 79.1521 31.366C78.5408 30.7414 78.1635 29.8389 78.1635 28.744H76.1635C76.1635 30.3091 76.7103 31.7306 77.7229 32.765C78.7387 33.8027 80.1659 34.392 81.8115 34.392V32.392ZM78.1635 28.744C78.1635 27.4034 78.6702 26.4397 79.8533 25.6792C81.1217 24.8637 83.191 24.274 86.3131 23.9424L86.1019 21.9536C82.8961 22.294 80.4433 22.9223 78.7718 23.9968C77.0148 25.1263 76.1635 26.7246 76.1635 28.744H78.1635ZM87.2061 22.8935C87.1581 22.0153 86.9376 21.082 86.3135 20.359C85.6591 19.601 84.7005 19.232 83.5195 19.232V21.232C84.2706 21.232 84.614 21.451 84.7996 21.666C85.0155 21.916 85.1729 22.3407 85.209 23.0025L87.2061 22.8935ZM83.5195 19.232C81.7804 19.232 80.1823 19.9992 78.7078 20.8498L79.7073 22.5822C81.1448 21.7528 82.3466 21.232 83.5195 21.232V19.232ZM80.0851 21.2365L78.6011 18.5205L76.846 19.4795L78.33 22.1955L80.0851 21.2365ZM78.2512 19.8494C80.0055 18.7597 82.0618 17.928 84.2755 17.928V15.928C81.5613 15.928 79.1376 16.9443 77.1959 18.1506L78.2512 19.8494ZM84.2755 17.928C86.0589 17.928 87.2526 18.4543 88.0211 19.3403C88.8118 20.2517 89.2955 21.7067 89.2955 23.844H91.2955C91.2955 21.4453 90.7573 19.4423 89.5319 18.0297C88.2845 16.5917 86.4682 15.928 84.2755 15.928V17.928ZM89.2955 23.844V33H91.2955V23.844H89.2955ZM90.2955 32H86.9355V34H90.2955V32ZM87.9219 32.8356L87.6419 31.1556L85.6691 31.4844L85.9491 33.1644L87.9219 32.8356ZM86.6555 30.32H86.5435V32.32H86.6555V30.32ZM85.8927 30.5607C84.5985 31.6701 83.257 32.392 81.8115 32.392V34.392C83.9501 34.392 85.7445 33.3219 87.1943 32.0793L85.8927 30.5607ZM83.1555 31.172C84.7244 31.172 85.8336 30.3903 86.9046 29.349L85.5105 27.915C84.5655 28.8337 83.9387 29.172 83.1555 29.172V31.172ZM87.2075 28.632V25.468H85.2075V28.632H87.2075ZM86.0844 24.4756C84.1188 24.7195 82.6645 25.1269 81.6774 25.7433C80.623 26.4017 80.0835 27.3187 80.0835 28.408H82.0835C82.0835 28.0973 82.1881 27.7823 82.7367 27.4397C83.3526 27.0551 84.4602 26.6925 86.3307 26.4604L86.0844 24.4756ZM80.0835 28.408C80.0835 29.2831 80.4064 30.0355 81.0525 30.5401C81.6589 31.0137 82.4265 31.172 83.1555 31.172V29.172C82.6806 29.172 82.4122 29.0643 82.2835 28.9639C82.1947 28.8945 82.0835 28.7649 82.0835 28.408H80.0835ZM93.7065 38.992L92.7339 38.7596L92.518 39.6632L93.4033 39.9449L93.7065 38.992ZM94.4625 35.828L94.7499 34.8702L93.7359 34.566L93.4899 35.5956L94.4625 35.828ZM98.4945 33.644L99.4451 33.9544L99.4484 33.9442L99.4515 33.934L98.4945 33.644ZM98.7745 32.72L99.7315 33.01L99.8327 32.676L99.7041 32.3515L98.7745 32.72ZM92.6705 17.32V16.32H91.1985L91.7409 17.6885L92.6705 17.32ZM96.8145 17.32L97.7606 16.9961L97.5292 16.32H96.8145V17.32ZM99.3065 24.6L100.253 24.2781L100.253 24.2761L99.3065 24.6ZM100.623 29.024L99.6637 29.3081L99.8758 30.024H100.623V29.024ZM100.763 29.024V30.024H101.543L101.733 29.2665L100.763 29.024ZM101.883 24.6L100.924 24.316L100.918 24.3366L100.912 24.3575L101.883 24.6ZM104.039 17.32V16.32H103.292L103.08 17.036L104.039 17.32ZM107.987 17.32L108.932 17.646L109.389 16.32H107.987V17.32ZM102.415 33.476L103.352 33.824L103.356 33.8131L103.36 33.802L102.415 33.476ZM95.8625 38.3C95.0364 38.3 94.523 38.2024 94.0097 38.0391L93.4033 39.9449C94.122 40.1736 94.8406 40.3 95.8625 40.3V38.3ZM94.6791 39.2244L95.4351 36.0604L93.4899 35.5956L92.7339 38.7596L94.6791 39.2244ZM94.1752 36.7858C94.47 36.8743 95.0358 37.024 95.5545 37.024V35.024C95.4643 35.024 95.3328 35.0089 95.1731 34.9769C95.0192 34.9461 94.8686 34.9058 94.7499 34.8702L94.1752 36.7858ZM95.5545 37.024C96.5826 37.024 97.4447 36.6918 98.117 36.098C98.7706 35.5207 99.1854 34.7499 99.4451 33.9544L97.5439 33.3336C97.3556 33.9101 97.0984 34.3293 96.793 34.599C96.5063 34.8522 96.1224 35.024 95.5545 35.024V37.024ZM99.4515 33.934L99.7315 33.01L97.8175 32.43L97.5375 33.354L99.4515 33.934ZM99.7041 32.3515L93.6001 16.9515L91.7409 17.6885L97.8449 33.0885L99.7041 32.3515ZM92.6705 18.32H96.8145V16.32H92.6705V18.32ZM95.8684 17.6439L98.3604 24.9239L100.253 24.2761L97.7606 16.9961L95.8684 17.6439ZM98.3597 24.9219C98.8279 26.2988 99.2016 27.7485 99.6637 29.3081L101.581 28.7399C101.147 27.2755 100.737 25.7012 100.253 24.2781L98.3597 24.9219ZM100.623 30.024H100.763V28.024H100.623V30.024ZM101.733 29.2665C101.914 28.5411 102.102 27.8012 102.292 27.0588C102.48 26.3172 102.67 25.5731 102.853 24.8425L100.912 24.3575C100.731 25.0829 100.543 25.8228 100.353 26.5652C100.165 27.3068 99.975 28.0509 99.7924 28.7815L101.733 29.2665ZM102.841 24.884L104.997 17.604L103.08 17.036L100.924 24.316L102.841 24.884ZM104.039 18.32H107.987V16.32H104.039V18.32ZM107.041 16.994L101.469 33.15L103.36 33.802L108.932 17.646L107.041 16.994ZM101.477 33.128C100.807 34.9326 100.108 36.2184 99.2417 37.0548C98.4174 37.8511 97.3798 38.3 95.8625 38.3V40.3C97.8453 40.3 99.3976 39.6849 100.631 38.4932C101.823 37.3416 102.65 35.7154 103.352 33.824L101.477 33.128Z" fill="white" mask="url(#path-9-outside-1_2_238)"/>
</svg>
