<svg width="127" height="61" viewBox="0 0 127 61" fill="none" xmlns="http://www.w3.org/2000/svg">
<g clip-path="url(#clip0_2_237)">
<g clip-path="url(#clip1_2_237)">
<circle cx="1.77087" cy="1.78497" r="1.5" fill="#D2D6DB"/>
<circle cx="10.7709" cy="1.78497" r="1.5" fill="#D2D6DB"/>
<circle cx="19.7709" cy="1.78497" r="1.5" fill="#D2D6DB"/>
<circle cx="28.7709" cy="1.78497" r="1.5" fill="#D2D6DB"/>
<circle cx="37.7709" cy="1.78497" r="1.5" fill="#D2D6DB"/>
<circle cx="46.7709" cy="1.78497" r="1.5" fill="#D2D6DB"/>
<circle cx="55.7709" cy="1.78497" r="1.5" fill="#D2D6DB"/>
</g>
<g clip-path="url(#clip2_2_237)">
<circle cx="1.77087" cy="10.785" r="1.5" fill="#D2D6DB"/>
<circle cx="10.7709" cy="10.785" r="1.5" fill="#D2D6DB"/>
<circle cx="19.7709" cy="10.785" r="1.5" fill="#D2D6DB"/>
<circle cx="28.7709" cy="10.785" r="1.5" fill="#D2D6DB"/>
<circle cx="37.7709" cy="10.785" r="1.5" fill="#D2D6DB"/>
<circle cx="46.7709" cy="10.785" r="1.5" fill="#D2D6DB"/>
<circle cx="55.7709" cy="10.785" r="1.5" fill="#D2D6DB"/>
</g>
<g clip-path="url(#clip3_2_237)">
<circle cx="1.77087" cy="19.785" r="1.5" fill="#D2D6DB"/>
<circle cx="10.7709" cy="19.785" r="1.5" fill="#D2D6DB"/>
<circle cx="19.7709" cy="19.785" r="1.5" fill="#D2D6DB"/>
<circle cx="28.7709" cy="19.785" r="1.5" fill="#D2D6DB"/>
<circle cx="37.7709" cy="19.785" r="1.5" fill="#D2D6DB"/>
<circle cx="46.7709" cy="19.785" r="1.5" fill="#D2D6DB"/>
<circle cx="55.7709" cy="19.785" r="1.5" fill="#D2D6DB"/>
</g>
<g clip-path="url(#clip4_2_237)">
<circle cx="1.77087" cy="28.785" r="1.5" fill="#D2D6DB"/>
<circle cx="10.7709" cy="28.785" r="1.5" fill="#D2D6DB"/>
<circle cx="19.7709" cy="28.785" r="1.5" fill="#D2D6DB"/>
<circle cx="28.7709" cy="28.785" r="1.5" fill="#D2D6DB"/>
<circle cx="37.7709" cy="28.785" r="1.5" fill="#D2D6DB"/>
<circle cx="46.7709" cy="28.785" r="1.5" fill="#D2D6DB"/>
<circle cx="55.7709" cy="28.785" r="1.5" fill="#D2D6DB"/>
</g>
<g clip-path="url(#clip5_2_237)">
<circle cx="1.77087" cy="37.785" r="1.5" fill="#D2D6DB"/>
<circle cx="10.7709" cy="37.785" r="1.5" fill="#D2D6DB"/>
<circle cx="19.7709" cy="37.785" r="1.5" fill="#D2D6DB"/>
<circle cx="28.7709" cy="37.785" r="1.5" fill="#D2D6DB"/>
<circle cx="37.7709" cy="37.785" r="1.5" fill="#D2D6DB"/>
<circle cx="46.7709" cy="37.785" r="1.5" fill="#D2D6DB"/>
<circle cx="55.7709" cy="37.785" r="1.5" fill="#D2D6DB"/>
</g>
<g clip-path="url(#clip6_2_237)">
<circle cx="1.77087" cy="46.785" r="1.5" fill="#D2D6DB"/>
<circle cx="10.7709" cy="46.785" r="1.5" fill="#D2D6DB"/>
<circle cx="19.7709" cy="46.785" r="1.5" fill="#D2D6DB"/>
<circle cx="28.7709" cy="46.785" r="1.5" fill="#D2D6DB"/>
<circle cx="37.7709" cy="46.785" r="1.5" fill="#D2D6DB"/>
<circle cx="46.7709" cy="46.785" r="1.5" fill="#D2D6DB"/>
<circle cx="55.7709" cy="46.785" r="1.5" fill="#D2D6DB"/>
</g>
<g clip-path="url(#clip7_2_237)">
<circle cx="1.77087" cy="55.785" r="1.5" fill="#73FF00"/>
<circle cx="10.7709" cy="55.785" r="1.5" fill="#FFE600"/>
<circle cx="19.7709" cy="55.785" r="1.5" fill="#FF8800"/>
<circle cx="28.7709" cy="55.785" r="1.5" fill="#FB00FF" fill-opacity="0.8"/>
<circle cx="37.7709" cy="55.785" r="1.5" fill="#FF0004"/>
<circle cx="46.7709" cy="55.785" r="1.5" fill="#0071FF"/>
<circle cx="55.7709" cy="55.785" r="1.5" fill="#8C00FF"/>
</g>
</g>
<mask id="path-50-outside-1_2_237" maskUnits="userSpaceOnUse" x="18.7291" y="13.285" width="108" height="30" fill="black">
<rect fill="white" x="18.7291" y="13.285" width="108" height="30"/>
<path d="M20.2771 35.285V14.537H24.4211V22.713H32.2611V14.537H36.3771V35.285H32.2611V26.325H24.4211V35.285H20.2771ZM45.8085 35.677C42.4205 35.677 40.9645 33.325 40.9645 29.405V19.605H45.0805V28.873C45.0805 31.281 45.7525 32.149 47.2645 32.149C48.5525 32.149 49.3925 31.589 50.4565 30.189V19.605H54.5725V35.285H51.2125L50.9045 33.045H50.7925C49.4485 34.641 47.9365 35.677 45.8085 35.677ZM65.7926 35.677C61.3966 35.677 57.9806 32.625 57.9806 27.445C57.9806 22.377 61.5646 19.213 65.2886 19.213C69.6006 19.213 71.8406 22.377 71.8406 26.689C71.8406 27.473 71.7566 28.229 71.6446 28.593H61.9846C62.3206 31.169 64.0006 32.513 66.3246 32.513C67.6126 32.513 68.7326 32.121 69.8526 31.421L71.2526 33.941C69.7126 35.005 67.7246 35.677 65.7926 35.677ZM61.9286 25.849H68.3126C68.3126 23.749 67.3606 22.405 65.3446 22.405C63.6926 22.405 62.2366 23.581 61.9286 25.849ZM75.5661 35.285V14.537H81.2501C87.5781 14.537 91.4981 17.841 91.4981 24.841C91.4981 31.813 87.5781 35.285 81.4741 35.285H75.5661ZM79.7101 31.953H80.9981C84.8621 31.953 87.2701 29.881 87.2701 24.841C87.2701 19.773 84.8621 17.869 80.9981 17.869H79.7101V31.953ZM99.0824 35.677C96.2824 35.677 94.4344 33.689 94.4344 31.029C94.4344 27.669 97.1504 25.905 103.478 25.233C103.394 23.693 102.722 22.517 100.79 22.517C99.3344 22.517 97.9344 23.161 96.4784 24.001L94.9944 21.285C96.8424 20.137 99.0824 19.213 101.546 19.213C105.522 19.213 107.566 21.593 107.566 26.129V35.285H104.206L103.926 33.605H103.814C102.442 34.781 100.874 35.677 99.0824 35.677ZM100.426 32.457C101.602 32.457 102.47 31.897 103.478 30.917V27.753C99.6424 28.229 98.3544 29.293 98.3544 30.693C98.3544 31.925 99.2224 32.457 100.426 32.457ZM113.133 41.585C112.209 41.585 111.593 41.473 110.977 41.277L111.733 38.113C112.013 38.197 112.461 38.309 112.825 38.309C114.421 38.309 115.317 37.301 115.765 35.929L116.045 35.005L109.941 19.605H114.085L116.577 26.885C117.053 28.285 117.445 29.797 117.893 31.309H118.033C118.397 29.853 118.789 28.341 119.153 26.885L121.309 19.605H125.257L119.685 35.761C118.313 39.457 116.633 41.585 113.133 41.585Z"/>
</mask>
<path d="M20.2771 35.285V14.537H24.4211V22.713H32.2611V14.537H36.3771V35.285H32.2611V26.325H24.4211V35.285H20.2771ZM45.8085 35.677C42.4205 35.677 40.9645 33.325 40.9645 29.405V19.605H45.0805V28.873C45.0805 31.281 45.7525 32.149 47.2645 32.149C48.5525 32.149 49.3925 31.589 50.4565 30.189V19.605H54.5725V35.285H51.2125L50.9045 33.045H50.7925C49.4485 34.641 47.9365 35.677 45.8085 35.677ZM65.7926 35.677C61.3966 35.677 57.9806 32.625 57.9806 27.445C57.9806 22.377 61.5646 19.213 65.2886 19.213C69.6006 19.213 71.8406 22.377 71.8406 26.689C71.8406 27.473 71.7566 28.229 71.6446 28.593H61.9846C62.3206 31.169 64.0006 32.513 66.3246 32.513C67.6126 32.513 68.7326 32.121 69.8526 31.421L71.2526 33.941C69.7126 35.005 67.7246 35.677 65.7926 35.677ZM61.9286 25.849H68.3126C68.3126 23.749 67.3606 22.405 65.3446 22.405C63.6926 22.405 62.2366 23.581 61.9286 25.849ZM75.5661 35.285V14.537H81.2501C87.5781 14.537 91.4981 17.841 91.4981 24.841C91.4981 31.813 87.5781 35.285 81.4741 35.285H75.5661ZM79.7101 31.953H80.9981C84.8621 31.953 87.2701 29.881 87.2701 24.841C87.2701 19.773 84.8621 17.869 80.9981 17.869H79.7101V31.953ZM99.0824 35.677C96.2824 35.677 94.4344 33.689 94.4344 31.029C94.4344 27.669 97.1504 25.905 103.478 25.233C103.394 23.693 102.722 22.517 100.79 22.517C99.3344 22.517 97.9344 23.161 96.4784 24.001L94.9944 21.285C96.8424 20.137 99.0824 19.213 101.546 19.213C105.522 19.213 107.566 21.593 107.566 26.129V35.285H104.206L103.926 33.605H103.814C102.442 34.781 100.874 35.677 99.0824 35.677ZM100.426 32.457C101.602 32.457 102.47 31.897 103.478 30.917V27.753C99.6424 28.229 98.3544 29.293 98.3544 30.693C98.3544 31.925 99.2224 32.457 100.426 32.457ZM113.133 41.585C112.209 41.585 111.593 41.473 110.977 41.277L111.733 38.113C112.013 38.197 112.461 38.309 112.825 38.309C114.421 38.309 115.317 37.301 115.765 35.929L116.045 35.005L109.941 19.605H114.085L116.577 26.885C117.053 28.285 117.445 29.797 117.893 31.309H118.033C118.397 29.853 118.789 28.341 119.153 26.885L121.309 19.605H125.257L119.685 35.761C118.313 39.457 116.633 41.585 113.133 41.585Z" fill="#4C4C4C"/>
<path d="M20.2771 35.285H19.2771V36.285H20.2771V35.285ZM20.2771 14.537V13.537H19.2771V14.537H20.2771ZM24.4211 14.537H25.4211V13.537H24.4211V14.537ZM24.4211 22.713H23.4211V23.713H24.4211V22.713ZM32.2611 22.713V23.713H33.2611V22.713H32.2611ZM32.2611 14.537V13.537H31.2611V14.537H32.2611ZM36.3771 14.537H37.3771V13.537H36.3771V14.537ZM36.3771 35.285V36.285H37.3771V35.285H36.3771ZM32.2611 35.285H31.2611V36.285H32.2611V35.285ZM32.2611 26.325H33.2611V25.325H32.2611V26.325ZM24.4211 26.325V25.325H23.4211V26.325H24.4211ZM24.4211 35.285V36.285H25.4211V35.285H24.4211ZM21.2771 35.285V14.537H19.2771V35.285H21.2771ZM20.2771 15.537H24.4211V13.537H20.2771V15.537ZM23.4211 14.537V22.713H25.4211V14.537H23.4211ZM24.4211 23.713H32.2611V21.713H24.4211V23.713ZM33.2611 22.713V14.537H31.2611V22.713H33.2611ZM32.2611 15.537H36.3771V13.537H32.2611V15.537ZM35.3771 14.537V35.285H37.3771V14.537H35.3771ZM36.3771 34.285H32.2611V36.285H36.3771V34.285ZM33.2611 35.285V26.325H31.2611V35.285H33.2611ZM32.2611 25.325H24.4211V27.325H32.2611V25.325ZM23.4211 26.325V35.285H25.4211V26.325H23.4211ZM24.4211 34.285H20.2771V36.285H24.4211V34.285ZM40.9645 19.605V18.605H39.9645V19.605H40.9645ZM45.0805 19.605H46.0805V18.605H45.0805V19.605ZM50.4565 30.189L51.2526 30.7941L51.4565 30.5258V30.189H50.4565ZM50.4565 19.605V18.605H49.4565V19.605H50.4565ZM54.5725 19.605H55.5725V18.605H54.5725V19.605ZM54.5725 35.285V36.285H55.5725V35.285H54.5725ZM51.2125 35.285L50.2218 35.4212L50.3406 36.285H51.2125V35.285ZM50.9045 33.045L51.8951 32.9088L51.7764 32.045H50.9045V33.045ZM50.7925 33.045V32.045H50.3272L50.0276 32.4008L50.7925 33.045ZM45.8085 34.677C44.373 34.677 43.4895 34.196 42.9235 33.4211C42.3158 32.5892 41.9645 31.2697 41.9645 29.405H39.9645C39.9645 31.4603 40.3412 33.2767 41.3085 34.6009C42.3174 35.982 43.8559 36.677 45.8085 36.677V34.677ZM41.9645 29.405V19.605H39.9645V29.405H41.9645ZM40.9645 20.605H45.0805V18.605H40.9645V20.605ZM44.0805 19.605V28.873H46.0805V19.605H44.0805ZM44.0805 28.873C44.0805 30.1209 44.2446 31.2015 44.7821 31.9814C45.386 32.8577 46.3024 33.149 47.2645 33.149V31.149C46.7145 31.149 46.5389 31.0062 46.4289 30.8465C46.2524 30.5904 46.0805 30.033 46.0805 28.873H44.0805ZM47.2645 33.149C48.0723 33.149 48.7927 32.9681 49.4745 32.542C50.1286 32.1332 50.6912 31.5327 51.2526 30.7941L49.6603 29.5839C49.1577 30.2452 48.7684 30.6248 48.4145 30.846C48.0883 31.0498 47.7446 31.149 47.2645 31.149V33.149ZM51.4565 30.189V19.605H49.4565V30.189H51.4565ZM50.4565 20.605H54.5725V18.605H50.4565V20.605ZM53.5725 19.605V35.285H55.5725V19.605H53.5725ZM54.5725 34.285H51.2125V36.285H54.5725V34.285ZM52.2032 35.1488L51.8951 32.9088L49.9138 33.1812L50.2218 35.4212L52.2032 35.1488ZM50.9045 32.045H50.7925V34.045H50.9045V32.045ZM50.0276 32.4008C48.7929 33.867 47.5358 34.677 45.8085 34.677V36.677C48.3371 36.677 50.104 35.415 51.5574 33.6891L50.0276 32.4008ZM71.6446 28.593V29.593H72.3832L72.6004 28.8871L71.6446 28.593ZM61.9846 28.593V27.593H60.8457L60.993 28.7223L61.9846 28.593ZM69.8526 31.421L70.7268 30.9353L70.2154 30.015L69.3226 30.573L69.8526 31.421ZM71.2526 33.941L71.821 34.7637L72.5672 34.2482L72.1268 33.4553L71.2526 33.941ZM61.9286 25.849L60.9377 25.7144L60.7836 26.849H61.9286V25.849ZM68.3126 25.849V26.849H69.3126V25.849H68.3126ZM65.7926 34.677C63.8294 34.677 62.1418 33.999 60.947 32.7981C59.7549 31.6002 58.9806 29.8083 58.9806 27.445H56.9806C56.9806 30.2616 57.9142 32.5858 59.5292 34.2088C61.1413 35.829 63.3597 36.677 65.7926 36.677V34.677ZM58.9806 27.445C58.9806 22.8861 62.159 20.213 65.2886 20.213V18.213C60.9702 18.213 56.9806 21.8678 56.9806 27.445H58.9806ZM65.2886 20.213C67.1775 20.213 68.5207 20.8938 69.4107 21.971C70.3218 23.0735 70.8406 24.6941 70.8406 26.689H72.8406C72.8406 24.3718 72.2394 22.2544 70.9525 20.697C69.6445 19.1141 67.7117 18.213 65.2886 18.213V20.213ZM70.8406 26.689C70.8406 27.4419 70.7565 28.0789 70.6888 28.2989L72.6004 28.8871C72.7567 28.3791 72.8406 27.504 72.8406 26.689H70.8406ZM71.6446 27.593H61.9846V29.593H71.6446V27.593ZM60.993 28.7223C61.1863 30.2041 61.7818 31.4244 62.7508 32.2718C63.7183 33.1178 64.9678 33.513 66.3246 33.513V31.513C65.3574 31.513 64.6049 31.2362 64.0674 30.7662C63.5314 30.2976 63.1189 29.5579 62.9762 28.4636L60.993 28.7223ZM66.3246 33.513C67.8391 33.513 69.1405 33.0453 70.3826 32.269L69.3226 30.573C68.3247 31.1966 67.3861 31.513 66.3246 31.513V33.513ZM68.9784 31.9066L70.3784 34.4266L72.1268 33.4553L70.7268 30.9353L68.9784 31.9066ZM70.6842 33.1182C69.2991 34.0752 67.5072 34.677 65.7926 34.677V36.677C67.942 36.677 70.1261 35.9347 71.821 34.7637L70.6842 33.1182ZM61.9286 26.849H68.3126V24.849H61.9286V26.849ZM69.3126 25.849C69.3126 24.6665 69.0468 23.5469 68.3584 22.706C67.643 21.8322 66.5916 21.405 65.3446 21.405V23.405C66.1136 23.405 66.5462 23.6498 66.8108 23.973C67.1024 24.3291 67.3126 24.9314 67.3126 25.849H69.3126ZM65.3446 21.405C64.2736 21.405 63.2472 21.7897 62.4445 22.5508C61.6439 23.3101 61.1171 24.3934 60.9377 25.7144L62.9195 25.9835C63.0481 25.0365 63.4033 24.3979 63.8207 24.0021C64.236 23.6082 64.7636 23.405 65.3446 23.405V21.405ZM75.5661 35.285H74.5661V36.285H75.5661V35.285ZM75.5661 14.537V13.537H74.5661V14.537H75.5661ZM79.7101 31.953H78.7101V32.953H79.7101V31.953ZM79.7101 17.869V16.869H78.7101V17.869H79.7101ZM76.5661 35.285V14.537H74.5661V35.285H76.5661ZM75.5661 15.537H81.2501V13.537H75.5661V15.537ZM81.2501 15.537C84.2499 15.537 86.528 16.3191 88.0544 17.7852C89.5736 19.2444 90.4981 21.5253 90.4981 24.841H92.4981C92.4981 21.1567 91.4626 18.2856 89.4398 16.3428C87.4243 14.4069 84.5783 13.537 81.2501 13.537V15.537ZM90.4981 24.841C90.4981 28.1421 89.5735 30.4679 88.0687 31.9697C86.5626 33.4727 84.3403 34.285 81.4741 34.285V36.285C84.7119 36.285 87.5016 35.3612 89.4815 33.3853C91.4628 31.408 92.4981 28.5119 92.4981 24.841H90.4981ZM81.4741 34.285H75.5661V36.285H81.4741V34.285ZM79.7101 32.953H80.9981V30.953H79.7101V32.953ZM80.9981 32.953C83.1025 32.953 84.9755 32.3857 86.3099 30.9739C87.6346 29.5722 88.2701 27.5043 88.2701 24.841H86.2701C86.2701 27.2177 85.7016 28.7058 84.8564 29.6001C84.0208 30.4842 82.7578 30.953 80.9981 30.953V32.953ZM88.2701 24.841C88.2701 22.1659 87.6355 20.1229 86.2981 18.7553C84.9559 17.3828 83.0812 16.869 80.9981 16.869V18.869C82.7791 18.869 84.0403 19.3071 84.8682 20.1536C85.7008 21.005 86.2701 22.448 86.2701 24.841H88.2701ZM80.9981 16.869H79.7101V18.869H80.9981V16.869ZM78.7101 17.869V31.953H80.7101V17.869H78.7101ZM103.478 25.233L103.584 26.2274L104.529 26.1271L104.477 25.1785L103.478 25.233ZM96.4784 24.001L95.6009 24.4805L96.0916 25.3786L96.9781 24.8672L96.4784 24.001ZM94.9944 21.285L94.4667 20.4355L93.6634 20.9346L94.1169 21.7645L94.9944 21.285ZM107.566 35.285V36.285H108.566V35.285H107.566ZM104.206 35.285L103.22 35.4494L103.359 36.285H104.206V35.285ZM103.926 33.605L104.913 33.4406L104.774 32.605H103.926V33.605ZM103.814 33.605V32.605H103.444L103.164 32.8457L103.814 33.605ZM103.478 30.917L104.175 31.634L104.478 31.3395V30.917H103.478ZM103.478 27.753H104.478V26.6212L103.355 26.7606L103.478 27.753ZM99.0824 34.677C97.928 34.677 97.0312 34.2723 96.423 33.6509C95.8116 33.0264 95.4344 32.1239 95.4344 31.029H93.4344C93.4344 32.5941 93.9812 34.0156 94.9938 35.05C96.0096 36.0877 97.4368 36.677 99.0824 36.677V34.677ZM95.4344 31.029C95.4344 29.6884 95.9411 28.7247 97.1242 27.9642C98.3926 27.1487 100.462 26.5589 103.584 26.2274L103.373 24.2386C100.167 24.579 97.7142 25.2072 96.0426 26.2818C94.2857 27.4113 93.4344 29.0096 93.4344 31.029H95.4344ZM104.477 25.1785C104.429 24.3003 104.208 23.367 103.584 22.644C102.93 21.886 101.971 21.517 100.79 21.517V23.517C101.541 23.517 101.885 23.736 102.07 23.951C102.286 24.201 102.444 24.6257 102.48 25.2874L104.477 25.1785ZM100.79 21.517C99.0513 21.517 97.4531 22.2841 95.9787 23.1348L96.9781 24.8672C98.4157 24.0378 99.6175 23.517 100.79 23.517V21.517ZM97.356 23.5215L95.872 20.8055L94.1169 21.7645L95.6009 24.4805L97.356 23.5215ZM95.5221 22.1344C97.2764 21.0446 99.3327 20.213 101.546 20.213V18.213C98.8321 18.213 96.4084 19.2293 94.4667 20.4355L95.5221 22.1344ZM101.546 20.213C103.33 20.213 104.523 20.7393 105.292 21.6252C106.083 22.5367 106.566 23.9917 106.566 26.129H108.566C108.566 23.7302 108.028 21.7273 106.803 20.3147C105.555 18.8767 103.739 18.213 101.546 18.213V20.213ZM106.566 26.129V35.285H108.566V26.129H106.566ZM107.566 34.285H104.206V36.285H107.566V34.285ZM105.193 35.1206L104.913 33.4406L102.94 33.7694L103.22 35.4494L105.193 35.1206ZM103.926 32.605H103.814V34.605H103.926V32.605ZM103.164 32.8457C101.869 33.955 100.528 34.677 99.0824 34.677V36.677C101.221 36.677 103.015 35.6069 104.465 34.3642L103.164 32.8457ZM100.426 33.457C101.995 33.457 103.104 32.6753 104.175 31.634L102.781 30.2C101.836 31.1187 101.21 31.457 100.426 31.457V33.457ZM104.478 30.917V27.753H102.478V30.917H104.478ZM103.355 26.7606C101.39 27.0045 99.9353 27.4119 98.9482 28.0283C97.8939 28.6867 97.3544 29.6037 97.3544 30.693H99.3544C99.3544 30.3822 99.459 30.0673 100.008 29.7247C100.623 29.3401 101.731 28.9775 103.602 28.7454L103.355 26.7606ZM97.3544 30.693C97.3544 31.5681 97.6772 32.3205 98.3234 32.8251C98.9298 33.2987 99.6973 33.457 100.426 33.457V31.457C99.9515 31.457 99.683 31.3493 99.5544 31.2488C99.4656 31.1795 99.3544 31.0499 99.3544 30.693H97.3544ZM110.977 41.277L110.005 41.0446L109.789 41.9482L110.674 42.2299L110.977 41.277ZM111.733 38.113L112.021 37.1551L111.007 36.851L110.761 37.8806L111.733 38.113ZM115.765 35.929L116.716 36.2394L116.719 36.2292L116.722 36.219L115.765 35.929ZM116.045 35.005L117.002 35.295L117.104 34.961L116.975 34.6365L116.045 35.005ZM109.941 19.605V18.605H108.469L109.012 19.9734L109.941 19.605ZM114.085 19.605L115.031 19.2811L114.8 18.605H114.085V19.605ZM116.577 26.885L117.524 26.5631L117.523 26.5611L116.577 26.885ZM117.893 31.309L116.935 31.5931L117.147 32.309H117.893V31.309ZM118.033 31.309V32.309H118.814L119.004 31.5515L118.033 31.309ZM119.153 26.885L118.195 26.601L118.188 26.6216L118.183 26.6424L119.153 26.885ZM121.309 19.605V18.605H120.563L120.351 19.321L121.309 19.605ZM125.257 19.605L126.203 19.931L126.66 18.605H125.257V19.605ZM119.685 35.761L120.623 36.109L120.627 36.098L120.631 36.087L119.685 35.761ZM113.133 40.585C112.307 40.585 111.794 40.4874 111.281 40.324L110.674 42.2299C111.393 42.4586 112.111 42.585 113.133 42.585V40.585ZM111.95 41.5094L112.706 38.3454L110.761 37.8806L110.005 41.0446L111.95 41.5094ZM111.446 39.0708C111.741 39.1592 112.307 39.309 112.825 39.309V37.309C112.735 37.309 112.604 37.2938 112.444 37.2619C112.29 37.2311 112.14 37.1908 112.021 37.1551L111.446 39.0708ZM112.825 39.309C113.853 39.309 114.716 38.9768 115.388 38.383C116.041 37.8057 116.456 37.0348 116.716 36.2394L114.815 35.6186C114.627 36.1951 114.369 36.6142 114.064 36.884C113.777 37.1372 113.393 37.309 112.825 37.309V39.309ZM116.722 36.219L117.002 35.295L115.088 34.715L114.808 35.639L116.722 36.219ZM116.975 34.6365L110.871 19.2365L109.012 19.9734L115.116 35.3734L116.975 34.6365ZM109.941 20.605H114.085V18.605H109.941V20.605ZM113.139 19.9288L115.631 27.2088L117.523 26.5611L115.031 19.2811L113.139 19.9288ZM115.631 27.2069C116.099 28.5838 116.472 30.0335 116.935 31.5931L118.852 31.0249C118.418 29.5604 118.008 27.9861 117.524 26.5631L115.631 27.2069ZM117.893 32.309H118.033V30.309H117.893V32.309ZM119.004 31.5515C119.185 30.826 119.373 30.0862 119.562 29.3438C119.751 28.6022 119.941 27.858 120.124 27.1275L118.183 26.6424C118.002 27.3679 117.813 28.1077 117.624 28.8501C117.435 29.5917 117.246 30.3359 117.063 31.0664L119.004 31.5515ZM120.112 27.1689L122.268 19.8889L120.351 19.321L118.195 26.601L120.112 27.1689ZM121.309 20.605H125.257V18.605H121.309V20.605ZM124.312 19.2789L118.74 35.4349L120.631 36.087L126.203 19.931L124.312 19.2789ZM118.748 35.413C118.078 37.2176 117.378 38.5034 116.513 39.3397C115.688 40.136 114.651 40.585 113.133 40.585V42.585C115.116 42.585 116.668 41.9699 117.902 40.7782C119.094 39.6266 119.921 38.0003 120.623 36.109L118.748 35.413Z" fill="white" mask="url(#path-50-outside-1_2_237)"/>
<defs>
<clipPath id="clip0_2_237">
<rect width="60" height="60" fill="white" transform="translate(0.270874 0.284973)"/>
</clipPath>
<clipPath id="clip1_2_237">
<rect width="100" height="9" fill="white" transform="translate(0.270874 0.284973)"/>
</clipPath>
<clipPath id="clip2_2_237">
<rect width="100" height="9" fill="white" transform="translate(0.270874 9.28497)"/>
</clipPath>
<clipPath id="clip3_2_237">
<rect width="100" height="9" fill="white" transform="translate(0.270874 18.285)"/>
</clipPath>
<clipPath id="clip4_2_237">
<rect width="100" height="9" fill="white" transform="translate(0.270874 27.285)"/>
</clipPath>
<clipPath id="clip5_2_237">
<rect width="100" height="9" fill="white" transform="translate(0.270874 36.285)"/>
</clipPath>
<clipPath id="clip6_2_237">
<rect width="100" height="9" fill="white" transform="translate(0.270874 45.285)"/>
</clipPath>
<clipPath id="clip7_2_237">
<rect width="100" height="9" fill="white" transform="translate(0.270874 54.285)"/>
</clipPath>
</defs>
</svg>
